<svg xmlns="http://www.w3.org/2000/svg" xmlns:xlink="http://www.w3.org/1999/xlink" width="822" height="617" viewBox="0 0 822 617">
  <defs>
    <rect id="entertainment-a" width="822" height="617" x="0" y="0"/>
  </defs>
  <g fill="none" fill-rule="evenodd">
    <mask id="entertainment-b" fill="#fff">
      <use xlink:href="#entertainment-a"/>
    </mask>
    <g mask="url(#entertainment-b)">
      <g transform="translate(123.646 8.899)">
        <path fill="#E14597" d="M137.948812,607.191678 C137.948812,607.191678 216.742111,484.886259 244.22718,444.936498 C262.970956,417.696541 315.057664,346.422165 331.756826,323.614918 C334.666963,319.641992 340.207303,318.70166 344.266855,321.492003 L548.3197,461.665702 C552.647317,464.638969 553.572191,470.643843 550.338595,474.779918 L442.294559,607.191678 L137.948812,607.191678 Z"/>
        <path fill="#ED9EC4" d="M408.409365,489.825028 C426.70109,502.403324 444.992816,514.979643 463.285531,527.556951 C469.573682,531.880895 475.49683,521.636124 469.257148,517.345799 C450.964433,504.767502 432.672708,492.191183 414.380982,479.613876 C408.091841,475.289932 402.168693,485.534703 408.409365,489.825028"/>
        <path fill="#911E5F" d="M552.258277,468.688823 C552.193981,467.480531 551.889316,466.289049 551.357143,465.192489 C551.223605,464.918597 551.077208,464.649648 550.915973,464.387621 C550.271035,463.342478 549.401555,462.409068 548.320392,461.665504 L493.539186,424.034437 L469.442024,407.481236 L460.645338,420.697297 C434.94671,459.302315 438.846017,520.831255 474.33149,550.697417 C477.100175,553.026988 479.974703,555.254714 482.938255,557.381584 L550.339287,474.77972 C550.944659,474.004515 551.405612,473.163062 551.724125,472.288978 C551.829966,471.997288 551.92097,471.701642 551.995157,471.404018 C552.1465,470.808771 552.234536,470.202648 552.262233,469.597513 C552.276082,469.293957 552.275092,468.99139 552.258277,468.688823"/>
        <path fill="#E14597" d="M506.634705,102.112412 C524.599015,116.97084 533.052459,100.618363 543.866062,97.1042313 C548.071022,95.7367457 552.687477,96.6750998 556.072416,99.5198258 L588.468712,126.531374 C595.346409,132.311794 594.007073,141.059549 587.566589,148.640541 C580.671087,157.575175 569.440055,173.46688 516.573882,210.819111 C483.929304,233.885419 449.971109,251.286005 424.424813,262.125034 C419.420604,264.248938 413.789261,264.208398 409.676293,260.654715 L373.189781,229.136299 C369.251896,225.7339 367.775066,220.308452 369.383456,215.360587 C371.156048,209.908443 372.836647,202.252303 371.837586,194.597153 C371.173853,189.510858 368.380438,184.975315 364.975716,181.24464 C359.172257,174.885783 361.073441,164.750767 368.813694,160.976585 L492.847658,100.508608 C497.362228,98.307579 502.764084,98.9127136 506.634705,102.112412"/>
        <path fill="#E6078A" d="M110.467502,453.478586 C91.8038484,457.712551 85.4514007,464.616227 81.5550614,484.899113 C80.8735235,488.445875 76.230361,488.445875 75.5478339,484.899113 C71.6514946,464.616227 65.3000361,457.712551 46.6363827,453.478586 C43.3721227,452.737988 43.3721227,447.690256 46.6363827,446.949658 C65.3000361,442.714705 71.6514946,435.813006 75.5478339,415.529131 C76.230361,411.98237 80.8735235,411.98237 81.5550614,415.529131 C85.4514007,435.813006 91.8038484,442.714705 110.467502,446.949658 C113.731762,447.690256 113.731762,452.737988 110.467502,453.478586"/>
        <path fill="#E66FAA" d="M213.477258,332.574865 C203.871431,334.754141 200.602225,338.306835 198.596189,348.745407 C198.246023,350.571687 195.856189,350.571687 195.505034,348.745407 C193.499987,338.306835 190.230781,334.754141 180.624955,332.574865 C178.945344,332.193196 178.945344,329.595665 180.624955,329.214984 C190.230781,327.03472 193.499987,323.483014 195.505034,313.043454 C195.856189,311.217173 198.246023,311.217173 198.596189,313.043454 C200.602225,323.483014 203.871431,327.03472 213.477258,329.214984 C215.156868,329.595665 215.156868,332.193196 213.477258,332.574865"/>
        <path fill="#911E5F" d="M155.733588,223.259472 C155.733588,266.247761 120.871292,301.095407 77.8661509,301.095407 C34.8619993,301.095407 0.000692418773,266.247761 0.000692418773,223.259472 C0.000692418773,180.271184 34.8619993,145.422549 77.8661509,145.422549 C120.871292,145.422549 155.733588,180.271184 155.733588,223.259472"/>
        <path fill="#EBC0D6" d="M164.864019,213.366807 C164.864019,256.355095 130.001723,291.202741 86.9965827,291.202741 C43.992431,291.202741 9.13112419,256.355095 9.13112419,213.366807 C9.13112419,170.378518 43.992431,135.529884 86.9965827,135.529884 C130.001723,135.529884 164.864019,170.378518 164.864019,213.366807"/>
        <path fill="#E6078A" d="M83.297187,139.705412 C66.8374036,143.440041 61.2357357,149.527972 57.7993603,167.41504 C57.1979451,170.542557 53.1027827,170.542557 52.5013675,167.41504 C49.0659812,149.527972 43.4633242,143.440041 27.00453,139.705412 C24.1260462,139.051827 24.1260462,134.601319 27.00453,133.948722 C43.4633242,130.213104 49.0659812,124.125173 52.5013675,106.238105 C53.1027827,103.109599 57.1979451,103.109599 57.7993603,106.238105 C61.2357357,124.125173 66.8374036,130.213104 83.297187,133.948722 C86.1746816,134.601319 86.1746816,139.051827 83.297187,139.705412"/>
        <path fill="#911E5F" d="M68.9107032,182.835294 C68.9107032,182.835294 57.0179162,195.25143 48.0995625,207.976066 C42.1378368,216.482558 36.5589199,224.795249 38.6450787,230.292877 C43.4890426,243.058053 81.1318946,236.54989 110.865346,236.901896 C125.182588,237.070978 68.9107032,182.835294 68.9107032,182.835294"/>
        <path fill="#E14597" d="M61.3325755,193.347827 C66.0687199,185.918118 71.2351531,178.803831 76.9624455,172.106811 C81.8697162,166.36792 90.7969726,167.547537 94.4163444,174.342447 C96.9318029,179.06487 99.4037379,183.81399 102.074496,188.448412 C108.263731,199.192517 114.545947,209.885206 120.825196,220.576907 C123.75116,225.559379 122.950922,231.12029 118.707384,234.615634 C116.421413,236.498275 113.776373,237.237884 110.865247,236.901698 C93.189774,234.86283 75.5063877,232.91394 57.7418895,231.772886 C50.1569365,231.287394 45.8194274,223.666851 48.953117,216.634633 C52.538857,208.584958 56.6904022,200.835873 61.3325755,193.347827"/>
        <path fill="#ED9EC4" d="M344.281495 370.734733C372.725069 389.203204 400.892664 408.123549 427.898975 428.655608 430.460924 430.603509 434.491791 429.037278 435.992361 426.534671 437.800563 423.516908 436.399899 420.36566 433.869603 418.443467 406.864282 397.911408 378.696686 378.991063 350.253112 360.522592 343.849227 356.364764 337.91322 366.598658 344.281495 370.734733M384.880876 517.999483C405.451648 531.676316 425.935374 545.480702 446.331064 559.415608 452.633064 563.719776 458.55819 553.476983 452.302681 549.203467 431.906991 535.26955 411.423266 521.464175 390.852493 507.78833 384.4951 503.560298 378.564038 513.800125 384.880876 517.999483M253.724099 487.230464C307.723861 523.10051 361.414012 559.432318 414.789608 596.222921 421.072814 600.553786 426.994973 590.308026 420.760236 586.010779 367.38464 549.220177 313.694489 512.888369 259.695716 477.019312 253.336344 472.794246 247.405283 483.033084 253.724099 487.230464M233.926264 514.980039C227.566892 510.755962 221.63583 520.9948 227.954646 525.19218 268.706458 552.261077 309.281209 579.596946 349.67791 607.190887L370.533563 607.190887C325.216733 576.131265 279.690199 545.379154 233.926264 514.980039M212.225365 549.551716C205.865993 545.328627 199.934931 555.566477 206.254736 559.763857 229.911718 575.479558 253.500448 591.299083 277.03774 607.190788L298.122881 607.190788C269.576433 587.850211 240.947884 568.631254 212.225365 549.551716"/>
        <path fill="#911E5F" d="M299.324425,422.041349 C298.726967,422.240094 281.21075,445.248063 273.515999,455.383079 C271.662295,457.824382 272.486274,461.345435 275.234187,462.706988 C293.629775,471.828502 353.771292,501.587876 353.98792,500.939235 C354.243126,500.172929 299.324425,422.041349 299.324425,422.041349"/>
        <path fill="#EBC0D6" d="M618.02253 186.645565L556.415064 272.897024 464.22544 411.392759C438.526812 449.997777 445.618169 501.905868 481.103642 531.770052 499.7851 547.492676 523.156212 558.770724 547.495721 563.764073 584.317562 571.318368 621.980198 555.276368 642.387757 523.722355L697.521108 438.473522 697.521108 149.374415C666.592739 146.968708 636.322169 161.027211 618.02253 186.645565M281.43727 444.96191L321.734064 392.348817C323.797472 389.655375 327.589949 389.008711 330.428866 390.865644L399.211768 435.854238C402.349414 437.905961 403.096238 442.182443 400.838952 445.176475L360.52831 498.628056C358.460945 501.369948 354.615053 502.023533 351.757342 500.119139L282.987299 454.291068C279.871414 452.213637 279.159212 447.935177 281.43727 444.96191"/>
        <path fill="#911E5F" d="M619.473444,442.845323 L601.067964,430.900836 L613.017134,412.501579 C619.499162,402.518836 616.659256,389.172256 606.673588,382.690789 L604.81296,381.483486 C594.826303,375.003009 581.474491,377.842791 574.990484,387.824546 L563.041314,406.224791 L544.634845,394.279315 C534.648188,387.798837 521.296375,390.637631 514.812368,400.620374 L513.605581,402.480273 C507.122563,412.462028 509.962469,425.809597 519.949126,432.290075 L538.355596,444.234562 L526.406426,462.634807 C519.922419,472.616562 522.762325,485.963142 532.749971,492.444608 L534.60961,493.651911 C544.597256,500.133377 557.949069,497.292607 564.431097,487.310852 L576.382245,468.910607 L594.787726,480.855094 C604.775372,487.33656 618.127184,484.497767 624.609213,474.514034 L625.816989,472.655124 C632.300996,462.672381 629.46109,449.3258 619.473444,442.845323"/>
        <path fill="#BD1B7B" d="M623.884152,436.258947 L605.477682,424.31446 L617.426852,405.916192 C623.90987,395.93246 621.069964,382.585879 611.083307,376.105402 L609.223668,374.898099 C599.236022,368.417621 585.884209,371.256415 579.401191,381.239158 L567.452022,399.638415 L549.045552,387.693928 C539.057906,381.212461 525.706094,384.052243 519.223076,394.034987 L518.016289,395.893897 C511.532282,405.876641 514.372188,419.223221 524.359834,425.704687 L542.766303,437.649174 L530.816144,456.04942 C524.333126,466.031174 527.173032,479.377754 537.15969,485.859221 L539.020318,487.066524 C549.006975,493.547001 562.358787,490.707219 568.841805,480.725464 L580.791964,462.325219 L599.198433,474.269706 C609.18509,480.750184 622.536903,477.911391 629.019921,467.928647 L630.227697,466.068748 C636.710715,456.086993 633.870809,442.740413 623.884152,436.258947"/>
        <path fill="#911E5F" d="M673.320478 308.408637C673.320478 313.774757 668.770297 318.989593 665.340846 322.592715 661.679929 326.435122 656.513496 328.830941 650.786204 328.830941 639.689698 328.830941 630.694189 319.839946 630.694189 308.748778 630.694189 305.622249 631.409359 302.661835 632.684399 300.024754 635.931843 293.303013 642.110196 285.638963 650.079936 285.638963 661.175453 285.638963 673.320478 297.316479 673.320478 308.408637M673.068339 241.902464C673.068339 247.269573 668.519147 252.48342 665.088707 256.086542 661.42779 259.929938 656.261357 262.324768 650.534064 262.324768 639.437559 262.324768 630.44205 253.334762 630.44205 242.242605 630.44205 239.116076 631.157219 236.155662 632.432259 233.518581 635.679703 226.79684 641.859046 219.132791 649.827797 219.132791 660.923313 219.132791 673.068339 230.810307 673.068339 241.902464"/>
        <path fill="#E14597" d="M674.901765 303.315025C674.901765 314.406193 665.906256 323.398177 654.80975 323.398177 643.715223 323.398177 634.719714 314.406193 634.719714 303.315025 634.719714 292.222868 643.715223 283.230884 654.80975 283.230884 665.906256 283.230884 674.901765 292.222868 674.901765 303.315025M674.901765 236.845536C674.901765 247.936704 665.906256 256.928688 654.80975 256.928688 643.715223 256.928688 634.719714 247.936704 634.719714 236.845536 634.719714 225.753379 643.715223 216.761395 654.80975 216.761395 665.906256 216.761395 674.901765 225.753379 674.901765 236.845536"/>
        <path fill="#E66FAA" d="M510.74698,143.128476 C509.914099,143.128476 509.076272,142.856561 508.373962,142.294933 L499.795882,135.434763 C498.155839,134.123638 497.889752,131.731774 499.201391,130.091385 C500.51303,128.452973 502.906821,128.186991 504.546864,129.499104 L513.125933,136.358285 C514.764987,137.670399 515.031074,140.061274 513.719435,141.702652 C512.968655,142.640018 511.863752,143.128476 510.74698,143.128476"/>
        <path fill="#EBC0D6" d="M539.195203 165.877286C538.362322 165.877286 537.523506 165.605371 536.822185 165.043743L522.597925 153.669783C520.957882 152.357669 520.691795 149.966794 522.004423 148.326404 523.316062 146.688981 525.708864 146.421021 527.348907 147.733135L541.573167 159.108084C543.21321 160.419209 543.479297 162.811073 542.166669 164.451462 541.415889 165.389816 540.310986 165.877286 539.195203 165.877286M555.797625 170.482242C554.157581 169.171117 551.76478 169.43611 550.453141 171.0765 549.140513 172.7159 549.40561 175.107764 551.045653 176.418889L556.302101 180.622202C558.403097 178.859203 560.35374 177.18124 562.172823 175.580402L555.797625 170.482242z"/>
        <path fill="#911E5F" d="M411.775905,151.125646 L386.383919,152.411063 L368.813298,160.976882 C361.073045,164.749086 359.171861,174.88509 364.97532,181.244937 C368.381031,184.974622 371.173457,189.510166 371.83719,194.597449 C372.836251,202.2526 371.156641,209.907751 369.384049,215.360884 C367.775659,220.308749 369.25249,225.734196 373.189385,229.136595 L383.664692,238.18494 C384.156309,238.512227 384.647926,238.839513 385.147457,239.1668 C406.996237,253.499196 411.67402,255.331409 436.937414,234.856699 L411.775905,151.125646 Z"/>
        <path fill="#EBC0D6" d="M296.960705,159.605639 C304.125261,165.397924 312.971406,172.444974 318.008258,176.45053 C320.392157,178.345037 323.536727,179.004554 326.469615,178.185843 C334.818207,175.854295 353.282048,172.618011 367.382662,184.048331 C383.381492,197.01423 383.054077,211.245771 381.293355,218.860381 C380.455529,222.487234 381.806734,226.263392 384.751492,228.543524 L408.661702,247.058468 C411.743955,249.445388 415.968698,249.725213 419.331875,247.753581 C436.308994,237.804456 487.784395,205.763963 518.924445,165.948676 C546.02176,131.302742 557.738474,104.902261 562.18677,92.7916583 C563.719983,88.6150429 562.146214,83.9381038 558.413088,81.514599 L524.331247,59.3876343 C521.275702,57.4041375 517.374417,57.3576647 514.230835,59.2007545 C507.892236,62.9165974 495.67698,70.6706263 478.163731,57.0541087 C466.8229,48.2351615 466.90698,37.1558587 468.417442,29.5036744 C469.171189,25.6869756 467.58555,21.7921631 464.34503,19.6395846 L437.170561,1.59826731 C432.579825,-1.45113654 426.365861,0.000227722545 423.61498,4.7772016 C411.994214,24.9384676 381.892792,74.6682721 352.331456,102.844605 C329.697276,124.416863 310.222503,137.145455 298.271355,143.874117 C292.397666,147.181593 291.718106,155.367719 296.960705,159.605639"/>
        <path fill="#E6078A" d="M393.702291 52.7698149L402.661201 58.363355C403.497049 58.8854319 404.425879 59.134605 405.34284 59.134605 407.03432 59.134605 408.686233 58.2882075 409.647706 56.7496627 411.131461 54.375597 410.409367 51.2480793 408.033381 49.765895L399.152616 44.2208053C397.311771 46.980496 395.408609 49.7827043 393.458955 52.6007332 393.540067 52.6580825 393.617222 52.7174095 393.702291 52.7698149M443.233182 71.739203L425.632886 60.7528457C423.25789 59.2706614 420.129146 59.9924723 418.64737 62.366538 417.163615 64.7415925 417.885709 67.8681213 420.261695 69.3503056L437.861001 80.336663C438.69685 80.8587399 439.62568 81.107913 440.541651 81.107913 442.233131 81.107913 443.886034 80.2615155 444.847507 78.7219819 446.332251 76.3479162 445.608178 73.2213873 443.233182 71.739203M513.632289 115.685918L496.032982 104.698572C493.656007 103.215399 490.530231 103.939187 489.047466 106.313253 487.562722 108.687319 488.285805 111.813847 490.660801 113.296032L508.259119 124.282389C509.095957 124.804466 510.024787 125.053639 510.940758 125.053639 512.632238 125.053639 514.285141 124.20823 515.246614 122.668697 516.730368 120.294631 516.007285 117.168102 513.632289 115.685918M478.432785 93.7116212L460.832489 82.7262526C458.457492 81.2430795 455.329738 81.9668679 453.846973 84.3399449 452.363218 86.7149994 453.086301 89.8415282 455.461297 91.3237125L473.061594 102.309081C473.896453 102.831158 474.826272 103.080331 475.742243 103.080331 477.432734 103.080331 479.086626 102.234922 480.048099 100.6944 481.531853 98.3213231 480.807781 95.1947942 478.432785 93.7116212M540.193077 132.26542L531.233178 126.672869C528.855214 125.189696 525.728449 125.913484 524.246673 128.286561 522.762918 130.660627 523.485012 133.787155 525.860998 135.270329L534.819908 140.86288C535.362962 141.202032 535.946572 141.41462 536.540074 141.529319 538.339373 138.803247 540.027886 136.159244 541.614514 133.597309 541.242586 133.079188 540.766796 132.623359 540.193077 132.26542M643.229936 553.294453C630.981048 556.07392 626.811698 560.604519 624.254695 573.915503 623.80759 576.244085 620.759958 576.244085 620.312853 573.915503 617.754861 560.604519 613.5865 556.07392 601.336622 553.294453 599.194081 552.807973 599.194081 549.495553 601.336622 549.009072 613.5865 546.229606 617.754861 541.699006 620.312853 528.388022 620.759958 526.059441 623.80759 526.059441 624.254695 528.388022 626.811698 541.699006 630.981048 546.229606 643.229936 549.009072 645.372478 549.495553 645.372478 552.807973 643.229936 553.294453"/>
        <path fill="#911E5F" d="M558.834672,95.8465005 C552.459474,109.038831 545.567929,121.996819 537.741618,134.392191 C530.126001,146.454343 521.52616,157.734369 512.159712,168.485396 C493.411979,190.006238 472.116145,209.600932 448.778665,226.055254 C441.898001,230.907207 434.909517,235.61381 427.738037,240.024767 C424.618196,241.943992 421.547813,244.001648 417.972954,244.953845 C414.598896,245.851659 411.11504,245.697409 408.033777,243.961108 C404.702253,242.083411 401.706058,247.206291 405.038571,249.083988 C411.621495,252.793898 419.386477,251.66372 425.783438,248.117948 C432.472203,244.411992 438.860261,240.055419 445.172152,235.750262 C457.990802,227.011406 470.212983,217.575459 481.850564,207.315856 C503.484694,188.244228 523.507466,166.741185 539.459806,142.655443 C548.710521,128.687908 556.674326,113.913526 563.95956,98.8405325 C564.655936,97.3988883 564.35325,95.6349011 562.894225,94.782571 C561.594456,94.0212088 559.534015,94.3980507 558.834672,95.8465005"/>
      </g>
    </g>
  </g>
</svg>
